<svg width="35" height="36" viewBox="0 0 35 36" fill="none" xmlns="http://www.w3.org/2000/svg">
<path d="M31.5694 35.3752H31.569L22.9581 35.3741C22.1973 35.3731 21.4679 35.0704 20.93 34.5324C20.392 33.9944 20.0894 33.2649 20.0885 32.5041V23.8941H14.3487V32.5041C14.3478 33.2649 14.0452 33.9944 13.5072 34.5324C12.9693 35.0704 12.2399 35.3731 11.4791 35.3741L2.8703 35.3752C2.49338 35.3752 2.12015 35.3011 1.77191 35.1568C1.42367 35.0126 1.10725 34.8012 0.84071 34.5347C0.574173 34.2682 0.362742 33.9518 0.218493 33.6036C0.0742425 33.2554 -1.41655e-06 32.8822 0 32.5053V15.9205C0.00034883 15.5207 0.0840729 15.1253 0.245826 14.7597C0.407579 14.394 0.643807 14.0662 0.939422 13.797L15.2879 0.750581C15.815 0.267838 16.5037 4.84818e-05 17.2185 6.58238e-09C17.9332 -4.84687e-05 18.622 0.267648 19.1491 0.750319L33.5 13.797C33.7956 14.0663 34.0318 14.3942 34.1935 14.7598C34.3552 15.1255 34.4389 15.5208 34.4393 15.9206V32.5053C34.4393 32.8822 34.3651 33.2554 34.2208 33.6036C34.0766 33.9518 33.8652 34.2681 33.5987 34.5346C33.3322 34.8011 33.0158 35.0125 32.6676 35.1568C32.3194 35.301 31.9462 35.3752 31.5694 35.3752ZM14.3487 21.0242H20.0885C20.8494 21.0251 21.5789 21.3277 22.1169 21.8657C22.655 22.4038 22.9576 23.1332 22.9585 23.8941V32.506L31.5694 32.5053V15.9206L17.2186 2.87396L2.86994 15.9205V32.5053L11.4787 32.5041V23.8941C11.4796 23.1332 11.7822 22.4038 12.3203 21.8657C12.8583 21.3277 13.5878 21.0251 14.3487 21.0242Z" fill="#11141C"/>
</svg>
