<svg width="38" height="32" viewBox="0 0 38 32" fill="none" xmlns="http://www.w3.org/2000/svg">
<path d="M35.1801 5.20159H22.9844L18.1061 1.5429C17.6183 1.17866 17.0261 0.981268 16.4173 0.97998H8.44321C7.69705 0.980834 6.98169 1.27762 6.45407 1.80524C5.92645 2.33286 5.62966 3.04822 5.62881 3.79439V6.60879H2.8144C2.06824 6.60964 1.35288 6.90643 0.825263 7.43405C0.297644 7.96167 0.000853359 8.67703 0 9.42319V29.124C0.000853359 29.8702 0.297644 30.5856 0.825263 31.1132C1.35288 31.6408 2.06824 31.9376 2.8144 31.9384H29.7076C30.4123 31.9376 31.0879 31.6573 31.5862 31.159C32.0846 30.6607 32.3649 29.9851 32.3657 29.2803V26.3096H35.3364C36.0411 26.3088 36.7167 26.0285 37.2151 25.5302C37.7134 25.0319 37.9937 24.3563 37.9945 23.6515V8.01599C37.9936 7.26983 37.6968 6.55447 37.1692 6.02685C36.6416 5.49923 35.9262 5.20244 35.1801 5.20159ZM29.5513 29.124H2.8144V9.42319H10.7885L15.6668 13.0819C16.1546 13.4461 16.7468 13.6435 17.3556 13.6448L29.5512 13.643L29.5513 13.6448V29.124ZM35.1801 23.4952H32.3657V13.6448C32.3648 12.8986 32.068 12.1833 31.5404 11.6557C31.0128 11.128 30.2974 10.8313 29.5513 10.8304H17.3556L12.4772 7.17171C11.9894 6.80747 11.3973 6.61008 10.7885 6.60879H8.44321V3.79439H16.4173L21.2956 7.45308C21.7834 7.81732 22.3756 8.01471 22.9844 8.01599H35.1801V23.4952Z" fill="#11141C"/>
</svg>
