<svg width="35" height="34" viewBox="0 0 35 34" fill="none" xmlns="http://www.w3.org/2000/svg">
<path d="M33.2274 7.04929C33.1433 6.85558 33.0118 6.68503 32.8446 6.55259C32.6774 6.42015 32.4794 6.32987 32.2682 6.28969C32.0569 6.24951 31.8388 6.26065 31.6329 6.32213C31.4271 6.38361 31.2399 6.49355 31.0876 6.64231L24.6924 12.8951L21.5953 12.2894L20.9758 9.2611L27.3709 3.00849C27.5232 2.85972 27.6358 2.67665 27.6987 2.47538C27.7617 2.2741 27.7731 2.06079 27.732 1.85418C27.6909 1.64757 27.5986 1.45399 27.463 1.29047C27.3275 1.12694 27.1529 0.998468 26.9547 0.916346C24.7739 0.01301 22.3659 -0.2295 20.0425 0.220205C17.7191 0.66991 15.5872 1.79112 13.9228 3.43872C12.2584 5.08632 11.1382 7.18444 10.7071 9.4615C10.2759 11.7386 10.5538 14.0897 11.5047 16.2107L1.60783 24.5686C1.58368 24.5891 1.5602 24.6105 1.53757 24.6326C0.552688 25.5965 -0.000365568 26.9034 1.81295e-07 28.266C0.000365931 29.6285 0.554122 30.9351 1.53952 31.8985C2.52492 32.862 3.86131 33.4034 5.25487 33.4037C6.64843 33.4041 7.98509 32.8633 8.97099 31.9004C8.99361 31.8783 9.01537 31.8554 9.03627 31.8317L17.5845 22.1554C19.7538 23.0851 22.1585 23.3567 24.4875 22.9352C26.8164 22.5137 28.9623 21.4183 30.6475 19.791C32.3326 18.1637 33.4794 16.0793 33.9393 13.8076C34.3993 11.536 34.1513 9.1816 33.2274 7.04929ZM28.841 17.9236C27.4315 19.2934 25.6079 20.1823 23.6408 20.4586C21.6737 20.7348 19.668 20.3835 17.9212 19.4569C17.6561 19.3043 17.3446 19.2474 17.041 19.2962C16.7374 19.3451 16.461 19.4964 16.2598 19.724L7.08188 30.1129C6.58636 30.5817 5.92226 30.8413 5.23277 30.8358C4.54328 30.8303 3.88363 30.56 3.39606 30.0833C2.90849 29.6066 2.63206 28.9617 2.62636 28.2876C2.62066 27.6134 2.88616 26.9641 3.36561 26.4796L13.9908 17.5061C14.219 17.3134 14.3725 17.0499 14.4255 16.7597C14.4785 16.4695 14.4278 16.1703 14.2819 15.9124C13.4427 14.4237 13.0517 12.7332 13.1543 11.0363C13.2569 9.33949 13.8489 7.70575 14.8617 6.32417C15.8745 4.9426 17.2667 3.86968 18.8773 3.22958C20.4878 2.58948 22.2508 2.40837 23.9623 2.70722L18.6202 7.93037C18.4672 8.07995 18.3543 8.26414 18.2916 8.4666C18.2289 8.66905 18.2183 8.88351 18.2608 9.09093L19.19 13.6333C19.2409 13.882 19.366 14.1104 19.5494 14.2897C19.7328 14.4691 19.9665 14.5913 20.2208 14.6411L24.8666 15.5496C25.0788 15.5911 25.2981 15.5807 25.5051 15.5194C25.7122 15.4582 25.9005 15.3479 26.0535 15.1983L31.3957 9.975C31.6605 11.4031 31.5664 12.8728 31.1213 14.2575C30.6763 15.6421 29.8937 16.9003 28.841 17.9236Z" fill="#11141C"/>
</svg>
