<svg width="37" height="35" viewBox="0 0 37 35" fill="none" xmlns="http://www.w3.org/2000/svg">
<path d="M35.9626 32.3604C33.3934 27.9353 29.2789 24.6164 24.4104 23.0417C26.7427 21.654 28.555 19.5389 29.5688 17.0214C30.5826 14.5038 30.742 11.7231 30.0223 9.10624C29.3027 6.48939 27.7438 4.18116 25.5853 2.53606C23.4267 0.89097 20.7877 0 18.0737 0C15.3597 0 12.7208 0.89097 10.5622 2.53606C8.40364 4.18116 6.84481 6.48939 6.12516 9.10624C5.40551 11.7231 5.56484 14.5038 6.57867 17.0214C7.59251 19.5389 9.40477 21.654 11.7371 23.0417C6.86874 24.6163 2.75434 27.9352 0.185111 32.3601C0.00223173 32.6761 -0.0475963 33.0519 0.0465884 33.4047C0.140773 33.7576 0.371256 34.0585 0.687332 34.2414C1.00341 34.4243 1.37919 34.4741 1.732 34.3799C2.08482 34.2857 2.38577 34.0552 2.56865 33.7392C4.14056 31.018 6.4009 28.7585 9.12259 27.1876C11.8443 25.6167 14.9315 24.7897 18.074 24.7898C21.2165 24.7898 24.3036 25.6168 27.0253 27.1878C29.7469 28.7588 32.0072 31.0184 33.5791 33.7395C33.6696 33.8961 33.79 34.0334 33.9336 34.1434C34.0772 34.2534 34.241 34.3341 34.4157 34.3808C34.5905 34.4275 34.7727 34.4393 34.952 34.4156C35.1314 34.3918 35.3042 34.333 35.4608 34.2424C35.6174 34.1518 35.7545 34.0313 35.8645 33.8877C35.9745 33.744 36.055 33.5802 36.1016 33.4054C36.1482 33.2306 36.16 33.0484 36.1361 32.8691C36.1122 32.6898 36.0533 32.5169 35.9626 32.3604ZM8.43538 12.3976C8.43538 10.4913 9.00066 8.62783 10.0597 7.04281C11.1188 5.45779 12.6241 4.22242 14.3853 3.49291C16.1465 2.76341 18.0844 2.57254 19.9541 2.94443C21.8237 3.31633 23.5411 4.2343 24.8891 5.58224C26.237 6.93019 27.155 8.64758 27.5269 10.5172C27.8988 12.3869 27.7079 14.3249 26.9784 16.086C26.2489 17.8472 25.0135 19.3525 23.4285 20.4116C21.8435 21.4707 19.98 22.0359 18.0737 22.0359C15.5184 22.0331 13.0685 21.0167 11.2616 19.2097C9.45467 17.4028 8.43828 14.953 8.43538 12.3976Z" fill="#11141C"/>
</svg>
