<svg width="36" height="33" viewBox="0 0 36 33" fill="none" xmlns="http://www.w3.org/2000/svg">
<path d="M34.8701 0.651187C34.5058 0.3318 34.0624 0.119694 33.5878 0.0378402C33.1133 -0.0440139 32.6257 0.00750287 32.178 0.186812L1.67735 12.3525C1.14571 12.5645 0.696001 12.9457 0.395503 13.4388C0.0950056 13.932 -0.0401211 14.5107 0.0103425 15.0884C0.0608061 15.6661 0.294147 16.2116 0.675449 16.6434C1.05675 17.0752 1.56551 17.37 2.12561 17.4837L9.87299 19.0569V28.8817C9.87255 29.4129 10.0274 29.9322 10.3178 30.374C10.6083 30.8158 11.0214 31.1601 11.5047 31.3634C11.9881 31.5667 12.52 31.6197 13.033 31.5159C13.5461 31.412 14.0173 31.1559 14.3869 30.78L18.6744 26.427L25.1818 32.2411C25.6609 32.6731 26.2792 32.912 26.9199 32.9128C27.1985 32.9125 27.4752 32.8679 27.7402 32.7807C28.1772 32.64 28.5702 32.3854 28.8801 32.0423C29.1899 31.6992 29.4057 31.2796 29.506 30.8254L35.7222 3.28538C35.8304 2.80916 35.8082 2.31195 35.658 1.84762C35.5078 1.38328 35.2354 0.96953 34.8701 0.651187ZM10.8888 16.5253L2.64448 14.8513L25.7288 5.64363L10.8888 16.5253ZM12.5172 28.8804V20.9258L16.6851 24.6497L12.5172 28.8804ZM26.9286 30.2257L13.3121 18.0598L32.9198 3.68232L26.9286 30.2257Z" fill="#11141C"/>
</svg>
